<?xml version="1.0" encoding="UTF-8"?><svg xmlns="http://www.w3.org/2000/svg" viewBox="0 0 221.35 180.57"><defs><style>.d{fill:none;stroke:#000;stroke-linecap:round;stroke-linejoin:round;stroke-width:2px;}</style></defs><g id="a"/><g id="b"><g id="c"><g><path class="d" d="M118.7,1.11c-2.17,.33-4.33,.94-6.5,.95-12,.09-24-.08-36,.08-10.67,.15-21.34,.51-32,.99-10.5,.48-18.3,8.02-18.95,18.47-.58,9.32,0,18.76-1.23,27.97-1.58,11.85-4.01,23.83-15.85,30.47-4.67,2.62-7.74,5.66-7.08,11.56,.31,2.79,.77,4.77,3.59,6.04,9.89,4.46,15,12.7,16.95,22.97,1.22,6.43,1.87,12.97,2.54,19.49,.81,7.82,.88,15.75,2.2,23.47,.92,5.36,5.68,8.06,10.3,10.6,6.14,3.37,12.94,4.2,19.55,4.74,9.44,.77,18.98,.13,28.48,.21,13.5,.11,27,.58,40.5,.41,14.17-.18,28.34-.8,42.5-1.49,5.35-.26,10.82-.72,15.94-2.15,2.84-.79,5.64-3.37,7.44-5.87,4.11-5.7,5.75-12.27,6.25-19.41,.83-11.7,1.78-23.5,4.12-34.96,1.67-8.2,6.84-14.97,14.73-19.08,4.35-2.27,5.24-6.25,2.93-12.2-4.33-.26-7.22-2.79-9.99-6.2-7.77-9.56-10.64-20.72-10.8-32.57-.15-11.89-2.19-23.17-7.06-34.02-1.77-3.94-4.56-6.6-8.57-7.39-6.77-1.32-13.63-2.74-20.49-2.95-14.32-.45-28.66-.14-43-.14"/><path class="d" d="M129.7,87.11c3.5-3.83,7.79-7.21,10.34-11.59,5.56-9.58,1.53-26.46-11.36-29.81-4.18-1.09-8.65-1.58-12.97-1.5-12.5,.23-24.99,.89-38,1.4v89.81c14,.26,27.45,1.62,41.02-.15,6.84-.89,13.08-2.15,19.08-6,7.9-5.07,10.5-11.84,9.4-20.65-1.06-8.47-4.68-15.11-12.99-18.53-1.58-.65-3.01-1.64-4.51-2.47"/><path class="d" d="M91.2,108.11c.49,5.17,.98,10.34,1.51,15.88,11.21,.3,22.43,.55,33.48-1.92,5.22-1.17,7.88-5.28,8.88-9.99,1.15-5.42-.67-10.28-5.91-12.9-3.47-1.73-7.23-3.62-10.98-3.89-7.96-.59-15.99-.2-23.99-.14-.67,0-1.33,.62-2.5,1.2v11.26"/><path class="d" d="M92.2,55.11v27c9.17,0,17.34,.25,25.5-.08,6.32-.26,11.6-6.31,12.5-13.42,.6-4.71-3.57-10.42-9.52-11.92-9.33-2.36-18.84-3.43-28.48-2.08"/></g></g></g></svg>