<?xml version="1.0" encoding="UTF-8"?><svg xmlns="http://www.w3.org/2000/svg" viewBox="0 0 153.45 178.02"><defs><style>.d{fill:none;stroke:#000;stroke-linecap:round;stroke-linejoin:round;stroke-width:2px;}</style></defs><g id="a"/><g id="b"><g id="c"><g><path class="d" d="M6.58,68.07c1.33,10.5,2.73,20.99,3.98,31.5,.79,6.65,1.54,13.32,1.98,20,.81,12.16,1.23,24.34,2.14,36.49,.22,2.9,.75,5.23,5.32,6.33,14.21,3.45,28.11,8.24,42.07,12.71,10.18,3.26,20.09,1.97,30.01-1.02,14.49-4.37,28.96-8.8,43.52-12.92,3.46-.98,4.83-2.65,5.02-6.09,.55-10.17,1.28-20.34,1.96-30.5,.65-9.67,1.15-19.35,2.05-28.99,.72-7.69,2.23-15.31,2.86-23.01,.68-8.3,.55-16.67,1.12-24.99,.82-12.01,1.94-24,2.97-36,.23-2.68,.87-5.34,.86-8,0-.84-1.53-2.38-2.37-2.39-6-.05-12,.23-18,.38-13,.34-26,.67-39,1-1,.03-2,.01-3,0-21.33-.17-42.67-.26-64-.54-7-.09-14.01-.51-21-1.01C1.45,.77,.77,2.49,1.06,5.58c.9,9.66,1.6,19.34,2.55,29,.88,9.01,2.04,18,2.92,27.01,.19,1.96-.28,3.99-.45,5.99"/><path class="d" d="M120.58,40.07c-.67,12.33-1.4,24.66-1.98,37-.44,9.49-.53,19.01-1.07,28.5-.4,7.02-1.13,14.02-2.02,20.99-.39,3.08-2.39,5.44-5.44,6.49-10.82,3.72-21.57,7.69-32.56,10.79-2.91,.82-6.69-.83-9.92-1.83-8.71-2.68-17.36-5.6-26.01-8.46-2.85-.94-3.96-2.81-4.11-5.99-.32-6.85-1.14-13.68-1.93-20.5-.38-3.29,.75-4.34,4.04-4.07,3.64,.3,7.33,.19,10.99,.03,2.34-.1,3.32,.71,3.01,3.04-.07,.49-.03,1,0,1.5,.16,3.67-1.02,8.47,.86,10.7,2.1,2.49,6.97,2.66,10.64,3.79,1.31,.4,2.78,.44,3.98,1.05,9.11,4.62,17.39-.91,26-2.18,.98-.14,2.28-2.13,2.42-3.37,.58-5.31,.78-10.66,1.1-15.99,.05-.83-.07-1.67,.02-2.5,.78-7.04,.79-7.08-6.51-6.99-10.33,.13-20.67,.23-31,.54-3.75,.11-6.15-.33-5.6-5.06,.35-2.94-.09-6.01-.45-8.98-.34-2.89,.94-3.56,3.54-3.54,12.17,.08,24.33-.03,36.5,.06,6.96,.05,8.5-1.28,8.5-8.03,0-3.67-.02-7.33,0-11,.02-2.43-.17-3.26-3.51-3.2-21.49,.4-43,.25-64.5,.17-5.79-.02-6.74-1.33-6-6.97,.2-1.5,.6-3.03,.46-4.49-.46-4.51,.05-5.22,4.55-5.5,.17-.01,.33,0,.5,0,21.17-.33,42.33-.77,63.5-.94,6.5-.05,13,.68,19.5,.91,2.87,.1,3.02,1.4,2,3.53"/></g></g></g></svg>