<?xml version="1.0" encoding="UTF-8"?><svg xmlns="http://www.w3.org/2000/svg" viewBox="0 0 162.85 197.5"><defs><style>.d{fill:none;stroke:#000;stroke-linecap:round;stroke-linejoin:round;stroke-width:2px;}</style></defs><g id="a"/><g id="b"><g id="c"><g><path class="d" d="M99.15,194c-1.33-.67-2.97-1.04-3.95-2.04-11.9-12.1-23.57-24.43-35.58-36.42-15.69-15.65-31.61-31.06-47.48-46.52-3.04-2.96-6.31-5.69-9.48-8.52-2.24-2-2.16-3.91-.02-6.02,5.88-5.78,11.68-11.65,17.52-17.48,7.67-7.67,15.46-15.21,22.97-23.03,9.3-9.7,18.26-19.74,27.58-29.42,4.57-4.75,9.66-9,14.44-13.56,3.24-3.09,6.18-6.52,9.62-9.36,.99-.82,3.85-.84,4.8-.02,9.82,8.49,19.45,17.2,29.06,25.93,.77,.7,1.04,1.96,1.54,2.96-1.17,.33-2.32,.92-3.5,.96-16.98,.66-29.98,8.91-40.44,21.58-6.11,7.4-10.16,16.01-11.99,25.47-1.02,5.27-2.09,10.68-1.91,15.98,.32,9.43,1.7,18.86,5.89,27.48,8.86,18.21,22.73,30.41,42.96,34.48,4.13,.83,8.36,1.15,13.67,1.86-4.84,4.84-9.01,9.01-13.18,13.18-7.17,7.17-14.37,14.29-21.43,21.56-.66,.68-.4,2.27-.57,3.44"/><path class="d" d="M132.65,66.5c-2,.5-4.05,.85-5.99,1.53-12.13,4.26-18.09,16.6-16.79,29.5,1.2,12.01,8.02,18.59,17.86,22.28,14.24,5.34,33.03-3,33.44-21.31,.09-4.17,1.27-8.57,.31-12.46-2.63-10.66-11.09-15.53-20.84-18.49-2.38-.72-4.98-.72-7.48-1.06"/></g></g></g></svg>