<?xml version="1.0" encoding="UTF-8"?><svg xmlns="http://www.w3.org/2000/svg" viewBox="0 0 152.14 176.55"><defs><style>.d{fill:none;stroke:#000;stroke-linecap:round;stroke-linejoin:round;stroke-width:2px;}</style></defs><g id="a"/><g id="b"><g id="c"><g><path class="d" d="M97.13,1.05c-5,0-10-.13-15,.04-4.01,.13-8.01,.95-12,.9-10.34-.14-20.67-.94-31-.85-11.5,.11-23,.88-34.5,1.43-2.72,.13-3.99,1.46-3.55,4.48,1.14,7.81,2.1,15.65,3.02,23.5,.47,3.98,.6,8.01,1.04,12,.76,6.84,1.78,13.66,2.45,20.5,1.58,16.16,3.04,32.33,4.52,48.5,1.35,14.67,2.56,29.34,4.11,43.99,.27,2.51,1.44,4.41,4.79,5.76,12.51,5.06,25.7,7.32,38.6,10.75,2.5,.66,5.09,1.1,7.48,2.04,10.51,4.1,19.84-1.5,29.48-3.67,11.46-2.59,22.7-6.18,34.03-9.37,6.11-1.72,6.82-2.91,7.54-9.49,1.19-10.85,2.8-21.65,3.91-32.51,.93-9.14,1.39-18.33,2.05-27.49,.84-11.67,1.63-23.34,2.52-35,.39-5.17,1.03-10.33,1.47-15.5,.87-10.16,1.67-20.33,2.53-30.5,.04-.51,.47-1,.46-1.5-.17-9.18,1.58-8.29-7.98-7.6-5.63,.4-11.33-.38-16.99-.36-7.83,.02-15.67,.33-23.5,.44-1.66,.02-3.33-.31-5-.47"/><path class="d" d="M122.13,33.55c.17,5,.25,10,.53,15,.13,2.32-.36,3.45-3.03,3.56-17.5,.73-35,1.68-52.5,2.39-4.32,.18-8.67-.2-13-.48-2.35-.15-3.18,.69-3.04,3.03,.28,4.66,.26,9.34,.64,13.99,.06,.73,1.55,1.92,2.39,1.92,14.17,.12,28.33,.19,42.5,.04,6.84-.07,13.67-.62,20.5-.95,2.16-.1,2.69,1.06,2.52,3-.87,9.66-1.76,19.33-2.48,29-.26,3.48,.02,7-.06,10.5-.1,4.33-.15,8.68-.59,12.99-.13,1.24-1.31,2.98-2.43,3.41-11.61,4.49-23.2,9.06-35.03,12.89-2.87,.93-6.75-.34-9.9-1.37-8.91-2.92-17.57-6.72-26.59-9.19-3.76-1.03-4.07-3.3-4.35-5.73-.76-6.8-1.18-13.65-1.55-20.49-.16-2.91,.64-5.09,4.47-4.57,2.62,.36,5.34,.25,7.99,.03,3.83-.32,5.13,1.56,5.01,5.04-.06,1.66-.12,3.34,.02,5,.18,2.19,.41,3.91,3.44,4.65,6.12,1.5,11.92,4.67,18.08,5.56,3.94,.57,8.3-1.68,12.45-2.73,.71-.18,1.31-.71,2.01-.97,6.68-2.46,6.92-.84,7.1-9.51,.11-5.18,1.18-10.34,1.92-15.5,.36-2.51-.74-3.11-3.02-3.03-11.33,.4-22.66,.85-34,.98-8.66,.09-17.35-.08-25.99-.65-1.43-.09-3.78-2.76-3.84-4.31-.61-16.16-.79-32.33-1.22-48.49-.07-2.77,.68-3.44,3.54-3.61,12.35-.74,24.66-2.16,37.01-2.81,10.65-.56,21.33-.62,31.99-.5,6.17,.07,12.33,.92,18.5,1.42"/></g></g></g></svg>