<?xml version="1.0" encoding="UTF-8"?><svg xmlns="http://www.w3.org/2000/svg" viewBox="0 0 191.17 186.39"><defs><style>.d{fill:none;stroke:#000;stroke-linecap:round;stroke-linejoin:round;stroke-width:2px;}</style></defs><g id="a"/><g id="b"><g id="c"><g><path class="d" d="M150.6,183.98c8.48-1.25,17.43-1.52,24.42-7.1,8.84-7.04,15.33-15.62,15.14-27.9-.25-16.33,.2-32.67-.13-49-.34-16.67-1.81-33.34-1.69-50,.06-7.92,0-15.62-1.01-23.53-1.86-14.58-16.51-25.44-31.74-24.16-12.92,1.09-25.98,.56-38.98,.66-2.67,.02-5.33-.38-8-.46-11.33-.36-22.67-.73-34-1-10-.24-20.01-.7-30-.4-7.19,.22-14.81,.26-21.4,2.67C11.91,7.89,5.27,16.76,3.01,28.97,.65,41.76,.98,54.6,1.06,67.48c.14,23.67-.13,47.34,.14,71,.09,8.04-1.23,16.18,2.77,24.07,6.51,12.83,16.59,19.93,30.63,21.95,15.4,2.21,30.67-.31,46.01-.89,14.65-.56,29.33-.12,44-.12h25.5"/><path class="d" d="M118.6,129.48c-.17-1.67,.02-3.47-.56-4.98-5.41-14.2-10.97-28.34-16.44-42.52-3.72-9.65-7.67-19.22-10.86-29.05-1.39-4.28-3.28-6.09-7.65-5.48-2.31,.32-4.66,.44-7,.51-2.83,.08-6.39-.99-8.27,.34-1.48,1.05-.75,5.04-1.25,7.67-2.79,14.7-8.14,28.61-13.5,42.49-3.69,9.56-7.68,19-11.38,28.55-.22,.56,.88,2.33,1.41,2.35,4.49,.19,9,.24,13.49,0,.88-.05,2.01-1.41,2.45-2.41,1.81-4.11,3.79-8.2,4.91-12.51,.68-2.62,1.84-3.45,4.15-3.45,7-.02,14,.03,21-.03,3.14-.03,4.09,2.2,4.99,4.52,.57,1.47,1,3,1.52,4.49q3.2,9.26,13,9.49c3.17,.07,6.33,.01,9.5,.01"/><path class="d" d="M128.6,68.48c-.83,1.5-2.4,3.01-2.39,4.5,.16,17.33,.58,34.67,.87,52,.09,5.53,.02,5.53,5.51,5.5,.83,0,1.7,.14,2.49-.03,2.85-.6,6.48-.49,8.24-2.24,1.33-1.33,.23-5.07,.27-7.73,.15-10.17,.42-20.33,.46-30.5,.02-6-.42-12-.41-18,0-2.66-.63-3.8-3.56-3.57-3.64,.28-7.33,.07-10.99,.07"/><path class="d" d="M78.6,64.98c3.17,8.33,6.45,16.62,9.43,25.02,.93,2.61-.69,4.06-3.43,3.97-4.17-.14-8.34-.28-12.5-.51-2.65-.14-1.42-1.6-1.04-2.99,2.57-9.31,5.03-18.66,7.53-27.99"/><path class="d" d="M136.6,40.48c-2,.67-4.28,.92-5.95,2.08-5.16,3.57-6.54,9.61-3.55,13.92,3.11,4.47,10.98,5.95,16,3,5.27-3.09,4.75-12.92-1.03-16.95-1.43-1-3.3-1.38-4.97-2.05"/></g></g></g></svg>