<?xml version="1.0" encoding="UTF-8"?><svg xmlns="http://www.w3.org/2000/svg" viewBox="0 0 186.2 186.93"><defs><style>.d{fill:none;stroke:#000;stroke-linecap:round;stroke-linejoin:round;stroke-width:2px;}</style></defs><g id="a"/><g id="b"><g id="c"><g><path class="d" d="M101.2,83.43c-.33-.67-.83-1.3-.97-2.01-.8-3.88-2.19-6.21-7.06-5.14-4.01,.88-8.3,.61-12.47,.61-3.52,0-5.18,1.52-5,5.04,.34,6.67,.82,13.33,.97,20,.28,12.33,.39,24.67,.52,37,.07,6.07,.35,6.27,6.51,6.03,4.49-.18,9-.14,13.5,.01,2.34,.08,3.12-.7,3.04-3.05-.41-11.16-.89-22.33-.93-33.5-.01-3.66,.83-7.47,2-10.96,1.25-3.7,4.16-5.79,8.39-5.55,4.74,.26,7.41,2.95,9.57,6.98,3.51,6.51,3.44,13.59,3.83,20.55,.4,7.14,.16,14.33,.06,21.49-.04,3.27,.15,5.06,4.57,4.19,4.49-.88,9.3-.31,13.96-.16,3.31,.11,4.57-1.23,4.54-4.54-.1-12,.39-24.02-.17-35.99-.48-10.32-4.6-19.27-13.37-25.5-6.6-4.69-20.36-4.2-26.98,1.02-1.94,1.53-3.68,3.31-5.52,4.98"/><path class="d" d="M4.2,185.93c0-8.5,.15-17-.03-25.5-.59-28.5-1.35-57-1.96-85.5-.42-19.83-.68-39.67-1.01-59.5-.02-1,.05-2-.01-3C.62,3.06,.73,3.1,10.2,2.9c27.84-.58,55.66-1.53,83.5-1.88,14.99-.19,30,.67,45,.86,7,.09,14-.28,21-.46,6.5-.16,13-.46,19.5-.36,1.02,.02,2.36,1.7,2.9,2.91,.49,1.11,.08,2.62,.11,3.95,.66,31.33,1.34,62.67,1.99,94,.07,3.5-.03,7,.02,10.5,.32,21.5,.68,43,.98,64.5,.08,5.73,0,5.8-5.49,5.49-20.88-1.17-41.68,.24-62.5,1.47-15.15,.89-30.33,1.65-45.5,1.96-12.49,.25-25-.34-37.5-.38-7.33-.02-14.67,.39-22,.41-2.33,0-4.67-.61-7-.95"/><path class="d" d="M65.2,76.43c-7.33-.17-14.67-.4-22-.39-.67,0-1.83,1.51-1.91,2.4-.37,3.81-.58,7.66-.56,11.49,.1,15.33,.33,30.67,.46,46,.07,9,.02,9,9.01,9,4,0,8.06-.41,11.98,.14,2.71,.38,3.18-.47,3.01-2.64-.3-3.84-.96-7.67-.93-11.5,.06-10.03-.08-19.99,1.63-30.05,1.25-7.4-.38-15.28-.64-22.95-.02-.65,.62-1.33,.95-2"/><path class="d" d="M51.2,43.93c-5.43,.67-8.57,4.46-9.8,9.05-1.19,4.44-.29,9.3,3.84,12.4,4.14,3.11,8.99,2.84,13.42,.95,4.57-1.96,7.75-5.7,7.96-10.9,.2-4.81-8.44-11.43-14.42-11.5"/></g></g></g></svg>