<?xml version="1.0" encoding="UTF-8"?><svg xmlns="http://www.w3.org/2000/svg" viewBox="0 0 188.17 169.7"><defs><style>.d{fill:none;stroke:#000;stroke-linecap:round;stroke-linejoin:round;stroke-width:2px;}</style></defs><g id="a"/><g id="b"><g id="c"><g><path class="d" d="M95.1,148.28c6.66,7.03,13.58,13.6,22.98,17.04,21.22,7.76,31.76-5.01,32.44-22.05,.3-7.65,.11-15.36-.58-22.98-.32-3.47,.87-4.03,3.62-5.13,8.33-3.35,16.26-7.39,23.63-12.77,14.01-10.24,11.85-24.08,2.36-34.55-6.1-6.73-14.54-9.79-22.95-12.51-6.33-2.05-5.72-2.2-5.68-9.04,.06-11.22,1.93-22.62-3.18-33.56-4.21-9.03-13.35-13.55-23.15-11.04-10.31,2.65-18.36,8.8-25.87,15.71-3.11,2.87-4.69,3.26-8.22,.53-6.26-4.86-13-9.22-19.95-13.04-7.37-4.05-15.63-3.59-23.4-1.46-7.4,2.03-12.66,11.78-13.09,21.35-.36,8.08,1.33,15.72,4.64,22.96,1.54,3.37,.62,4.3-2.58,5.1-9.71,2.42-18.2,7.4-25.96,13.51C3.83,71.31-.19,78.2,1.32,86.24c1.67,8.87,6.04,16.85,14.82,20.97,5.82,2.72,11.87,5.04,18,6.95,3.29,1.03,4.23,2.09,3.57,5.64-2.18,11.65-1.61,22.88,2.03,34.59,4.34,13.97,20.39,18.34,32.81,10.3,6.48-4.19,12.37-9.28,18.57-13.9,1.92-1.44,3.99-2.68,5.99-4.02"/><path class="d" d="M109.6,55.28c-10.17,0-20.34-.18-30.49,.18-1.71,.06-3.96,2.15-4.9,3.88-3.92,7.19-7.49,14.58-11.09,21.95-1.85,3.8-1.45,7.3,.88,11.05,3.06,4.92,5.37,10.31,8.11,15.43,2.95,5.51,3.41,9.12,12.99,8.57,5.98-.34,12-.18,18-.03,4.72,.12,7.93-1.6,10.06-6.01,3.78-7.78,8.24-15.23,11.81-23.09,1.84-4.04,2.04-8.34-1.27-12.52-4.89-6.19-9.1-12.92-13.6-19.42"/><path class="d" d="M49.1,118.78c6,.83,11.99,1.74,18,2.48,4.45,.55,7.57,2.81,10.04,6.49,2.45,3.65,5.17,7.13,8,10.5,1.71,2.03,2.03,3.17,.08,5.64-5.81,7.36-12.85,13.05-21.68,15.72-6.81,2.07-11.79,.85-14.83-7.87-1.37-3.92-1.85-8.28-2.02-12.46-.23-5.65,.19-11.33,.44-16.99,.05-1.01,.63-2,.96-3"/><path class="d" d="M101.1,28.28c3.83,5,7.49,10.16,11.6,14.91,1.35,1.56,3.8,2.56,5.92,3,5.44,1.11,11.05,1.45,16.46,2.7,3.68,.85,5.96,.09,6.47-3.61,1.24-8.96,2.71-17.98,.52-26.98-1.42-5.84-7.62-9.71-13.46-8.48-11.48,2.41-20.42,8.79-27.51,17.98"/><path class="d" d="M86.1,27.28c-4.5-4-8.88-8.15-13.56-11.93-1.8-1.45-4.27-2.08-6.44-3.07-11.08-5.1-18.55-1.27-21.04,10.49-1.8,8.51-.56,16.54,2.47,24.54,.74,1.96,1.76,2.68,3.57,2.45,4.67-.6,9.32-1.52,14.01-1.92,4.06-.35,6.62-2.57,9.03-5.53,4.03-4.94,8.3-9.7,12.46-14.53"/><path class="d" d="M40.6,108.28c3.17-7.83,7.24-15.46,9.11-23.59,.91-3.98-1.89-9.07-3.69-13.38-4.09-9.76-4.25-9.66-14.42-6.04-7.9,2.81-15.14,6.33-19.04,14.49-2.98,6.25-3.62,10.96,3.1,15.42,6.2,4.12,12.91,7.47,19.45,11.07,1.56,.86,3.32,1.36,4.98,2.03"/><path class="d" d="M124.1,59.28c2.33,4,4.63,8.02,7.06,11.96,.18,.3,1.74,.27,1.87,0,1.45-2.94,2.93-5.9,3.92-9.01,.21-.67-1.39-2.66-2.37-2.83-3.78-.64-7.65-.79-11.48-1.13"/><path class="d" d="M132.1,97.28c1.67,3.17,3.54,6.25,4.84,9.56,.28,.73-1.27,2.64-2.4,3.34-1.23,.77-2.93,.99-4.44,1.04-1.99,.06-4-.28-6-.44,.67-1.67,1.15-3.44,2.04-4.98,1.7-2.91,3.63-5.69,5.46-8.52"/><path class="d" d="M55.6,94.28c1.71,3.46-1.35,5.43-2.5,8-3.35,7.45-2.98,8.03,5.5,7.98,1.83-.01,3.67-.31,5.5-.48"/><path class="d" d="M62.6,57.78c-3,.5-5.98,1.23-9,1.44-3.55,.24-3.42,2.17-2.47,4.55,1.07,2.7,2.31,5.34,3.48,8.01,1.5-2.17,3.08-4.29,4.48-6.51,1.43-2.27,2.69-4.65,4.02-6.99"/><path class="d" d="M101.6,44.28c-2.33-3-4.6-6.06-7.1-8.91-.27-.31-2.12,.32-2.86,.96-3.05,2.59-5.95,5.36-8.91,8.06l.37,1.34,18-.94"/><path class="d" d="M56.6,98.28c2.67,4.17,5.28,8.37,8.07,12.45,.34,.5,1.6,.38,2.43,.55"/><path class="d" d="M148.6,62.28c-4,7-8.05,13.97-11.93,21.04-.38,.7,.03,2.07,.46,2.94,2.93,5.87,6.17,11.59,8.83,17.58,.78,1.74,1.32,2.8,3.12,2.41,8.57-1.83,17.07-3.7,23.54-10.44,7.14-7.45,6.29-18.21-2.01-24.56-6.41-4.91-14.01-6.79-21.52-8.97"/><path class="d" d="M89.6,68.28c-4.57,2.12-8.95,4.38-11.02,9.49-3.97,9.81-.82,18.78,11.02,21.5,1.14,.26,2.34,.31,3.5,.52,9.43,1.73,14.07-.67,15.98-8.51,3.23-13.27-1.22-20.12-8.52-22.36-3.25-.99-6.96-.47-10.46-.64"/><path class="d" d="M137.6,119.28c-5.67,1-11.31,2.55-17.01,2.81-4.09,.19-6.69,1.77-9,4.68-3.32,4.18-6.77,8.26-9.9,12.57-.63,.87-.65,3.33,0,3.82,7.41,5.62,14.32,12.08,23.41,15.12,9.95,3.32,15.72-.95,17.94-11.52,1.54-7.33,.87-14.73-.96-21.98-.59-2.32-.59-5.17-3.98-5.5"/><path class="d" d="M95.1,122.78c-2.33,.17-4.67,.34-7,.5-2.22,.15-3.19,.8-1.51,3.01q7.03,9.27,13.48,.96c.89-1.16,1.36-2.64,2.03-3.98-1.5-.17-3-.36-4.5-.49-.66-.06-1.33,0-2,0"/></g></g></g></svg>