<?xml version="1.0" encoding="UTF-8"?><svg xmlns="http://www.w3.org/2000/svg" viewBox="0 0 184.06 183.29"><defs><style>.d{fill:none;stroke:#000;stroke-linecap:round;stroke-linejoin:round;stroke-width:2px;}</style></defs><g id="a"/><g id="b"><g id="c"><g><path class="d" d="M77.37,1c7.67,.33,15.37,.31,22.99,1.09,10.95,1.12,21.99,1.89,32.04,7.35,7.34,3.99,14.39,8.38,20.41,14.12,8.33,7.95,16.56,15.84,22.33,26.29,4.64,8.41,6.25,17.12,7.14,26.16,1.48,15.05,.85,30.09-1.94,44.99-.26,1.38-.8,2.77-1.49,3.99-7.89,13.87-16.61,26.96-29.36,37.16-6.67,5.34-12.73,11.29-21.12,13.85-18,5.48-36.13,8.27-55.04,4.71-6.94-1.31-13.07-3.74-18.95-7.23-7.4-4.39-15.04-8.49-21.93-13.59-9.36-6.92-15.58-16.56-19.5-27.41-4.23-11.69-8.25-23.51-11.35-35.53-1.28-4.96-.24-10.64,.36-15.93,.53-4.72,1.78-9.38,2.93-14,2.84-11.44,9.73-20.61,17-29.49,9.62-11.74,21.55-20.86,34.57-28.36,6.29-3.62,13.57-5.5,20.41-8.16"/><path class="d" d="M68.87,117.5c-4-3.33-8.11-6.54-11.97-10.03-5.77-5.22-11.38-10.62-17.02-15.98-5.68-5.4-5.57-12.23-3.91-18.97,2.47-10.05,8.97-17.35,17.41-23.02,8.48-5.69,16.59-12.13,25.63-16.75,7.02-3.6,15.21-4.91,22.87-7.25,7.17-2.19,14.46-3.65,22-2.97,7.97,.72,15.41,3.31,21.42,8.57,5,4.38,6.55,9.96,4.74,16.94-3.06,11.82-7.45,22.91-18.26,29.28-11.34,6.68-23.74,11.44-37.38,9.57-6.27-.86-11.58-4.32-15.97-8.93-.5-.52-.78-2.11-.47-2.36,.76-.63,2.06-1.24,2.89-1,1.76,.51,3.37,1.55,5.03,2.41,8.34,4.33,16.71,3.66,24.99-.03,5.24-2.34,10.39-4.88,15.5-7.49,7.84-3.99,11.64-11.24,14.43-19.01,2.09-5.8-1.77-12.55-7.92-14.97-7.27-2.86-14.67-2.6-21.99-.46-7.89,2.31-15.98,4.29-23.45,7.6-13.29,5.89-24.78,14.56-34.03,25.88-5.61,6.87-4.19,19.53,1.9,24.55,7.28,6,13.99,12.67,21.14,18.83,1.12,.97,3.29,1.17,4.92,1.02,9.23-.85,18.15-.62,27.08,2.89,6.71,2.64,11.33,16.21,8.88,22.16-1.59,3.85-4.28,6.39-8.95,5.27"/><path class="d" d="M69.87,117.5c-5.83,4-11.79,7.83-17.47,12.04-7.68,5.69-11.52,12.92-9.66,22.98,1.54,8.33,5.77,9.75,12.6,8.81,17.02-2.36,26.79-10.99,27.52-32.33,.06-1.66,.27-3.39-.05-4.99-.77-3.89,.92-5.12,4.55-5.04,6.38,.14,12.65-.06,18.55,3.44,6.47,3.84,8.8,9.25,5.95,16.1-.55,1.31-1.01,2.66-1.51,4"/><path class="d" d="M75.37,120.5c-4.83,4.5-9.79,8.87-14.45,13.55-2.91,2.92-5.86,6.02-7.83,9.57-.91,1.64-.27,5.16,1.02,6.68,.99,1.17,4.4,1.28,6.21,.57,7.4-2.92,12.46-8.19,13.48-16.38,.43-3.45,.07-6.99,.07-10.49"/></g></g></g></svg>