<?xml version="1.0" encoding="UTF-8"?><svg xmlns="http://www.w3.org/2000/svg" viewBox="0 0 152.39 163.14"><defs><style>.d{fill:none;stroke:#000;stroke-linecap:round;stroke-linejoin:round;stroke-width:2px;}</style></defs><g id="a"/><g id="b"><g id="c"><g><path class="d" d="M2.77,121c9.26,4.48,17.69,10.79,28,12.99,7.99,1.71,15.97,3.48,24.01,4.95,3.77,.69,7.65,.89,11.49,1.03,12.44,.46,24.84-.05,36.99-3,10.37-2.52,20.75-5.06,30.97-8.08,4.53-1.34,8.86-3.6,12.98-5.98,3.06-1.77,3.85-.51,4.02,2.1,.67,10.37-3.08,17.97-11.51,22.94-11.36,6.7-24,9.53-36.96,11.06-13.79,1.62-27.53,3.37-41.5,3.12-11.09-.19-21.42-3.03-31.47-7.18-5.98-2.47-11.66-5.67-17.54-8.42-7.9-3.7-12.41-9.31-11.02-18.52,.32-2.14,.36-4.33,.52-6.5"/><path class="d" d="M1.77,86.5c-1.64,13.2,3.63,21.49,15.41,27.67,9.78,5.13,20.24,8.01,30.65,10.56,12.82,3.14,26.27,5.14,39.4,3.03,16.62-2.67,33.52-4.92,48.58-13.69,8.32-4.85,14.47-10.71,14.5-21.08,0-.83,.99-1.72,.87-2.49-.19-1.21-.67-2.59-1.51-3.42-.5-.5-2.16-.49-2.87-.03-13.77,8.76-29.63,11.33-45.09,14.7-6.52,1.42-13.62,.11-20.45,.28-5.5,.14-11.01,.5-16.5,.99-12.47,1.1-24.26-2.07-36-5.55-8.15-2.42-16.3-4.85-23.05-10.43-.86-.71-2.29-.72-3.46-1.05"/><path class="d" d="M149.27,50c2.98,3.58,2.82,12.91-.52,16.98-8.53,10.36-19.76,16.95-32.53,19.76-10.38,2.28-21.26,2.78-31.95,3.11-10.65,.33-21.43,.26-31.96-1.11-7.67-1-14.98-4.61-22.55-6.68-7.98-2.19-15.04-5.97-21.49-11.05-4.91-3.87-7.97-13.33-5.98-19,1.24-3.54,3.5-.98,4.95-.42,6.91,2.64,13.5,6.35,20.58,8.22,9.29,2.45,18.91,3.8,28.46,5.11,7.94,1.08,16,2.08,23.98,1.9,8.35-.19,16.71-1.59,24.99-2.9,5.9-.93,11.83-2.14,17.47-4.04,6.99-2.35,13.69-5.58,20.55-8.36,1.61-.65,3.32-1.02,4.99-1.52"/><path class="d" d="M50.77,1c-11.02,2.65-21.99,5.45-31.99,11.02-3.92,2.18-8.04,4.21-11.44,7.07-6.79,5.7-5.48,14.24,2.41,18.93,6.9,4.1,14.49,6.38,21.89,9.28,16.23,6.36,32.93,6.29,49.61,5.51,21-.99,41.63-4.59,60.51-14.79,1.97-1.06,4.18-1.76,5.96-3.06,4.12-3,4.28-9.71-.03-13.88-4.78-4.62-10.04-8.46-16.35-11.25-10.48-4.63-21.21-7.45-32.58-7.78-15.83-.47-31.67-.7-47.5-1.03"/></g></g></g></svg>