<svg xmlns="http://www.w3.org/2000/svg" viewBox="0 0 196.96 190.99">
<defs><style>.d{fill:#000;stroke:#000;stroke-linecap:round;stroke-linejoin:round;stroke-width:1px;}.w{fill:#EEEEEE}</style></defs>
<path class="d" d="M193.19,42.94c2.31-12.59-2.21-22.78-10.99-31.51-4.99-4.96-11.74-5.88-18.04-7.36-10.47-2.47-21.01-3.44-32-2.44-11.37,1.04-22.97-.45-34.47-.64-3.16-.05-6.33,.86-9.5,.9-10.67,.12-21.35-.34-31.99,.16-9.03,.43-18.19,1.06-26.96,3.07C14.33,8.54,5.76,22.87,3.9,35.9c-1.78,12.52-3.65,24.98-2.6,37.53,2.27,27.15,1.76,54.33,1.93,81.51,.03,4.84,.61,9.67,.97,14.5,.06,.84,.04,1.91,.53,2.47,9.15,10.45,19.63,18.28,34.46,18.08,13.83-.19,27.67,.07,41.5-.06,26-.25,52-.56,78-1,17.07-.29,27.49-9.66,32.74-26.4,3.33-10.61,4.23-21.41,4.46-32.08,.41-18.48-1.04-36.99-1.7-55.49-.04-1.17,.03-2.33-.01-3.5-.32-9.33-.66-18.67-.99-28"/>
<path class="w" d="M26.19,134.94c.5-.17,1.03-.54,1.5-.47,13.63,1.96,15.19,1.01,19.5-12.03,2.48-7.5,2.49-7.38,10.5-7.54,5.67-.12,11.34-.56,17-.99,2.09-.16,3.28,.31,4.07,2.51,1.78,4.91,4.08,9.64,5.87,14.55,.86,2.38,2.01,3.23,4.57,3.05,3.81-.27,7.68-.31,11.49,0,3.44,.29,4.28-1.58,3.43-4.05-3.14-9.07-6.61-18.02-9.92-27.03-5.02-13.66-10-27.33-15.01-40.99-.26-.7-.82-1.3-.96-2.01-2-10-2.83-7.89-9.52-8.04-3.17-.07-6.33-.75-9.5-.93-6.25-.35-6.49,.44-8.1,6.45-3.33,12.42-7,24.77-10.97,37.01-4.03,12.43-8.61,24.68-12.9,37.03-.26,.74-.03,1.66-.03,2.49"/>
<path class="d" d="M63.69,71.94c-2.5,8.5-5.06,16.98-7.37,25.53-.15,.57,1.55,2.36,2.37,2.34,4.17-.07,8.33-.65,12.5-.84,3.28-.15,4.22-1.6,2.99-4.53-3.31-7.84-6.69-15.66-9.94-23.52-.35-.85-.05-1.98-.05-2.98"/>
<path class="w" d="M134.69,69.94c-15.42,2.9-23.31,11.2-25.47,27-.52,3.81-.96,7.66-.98,11.5-.04,10.96,4.71,18.73,14.9,23.61,11.36,5.43,22.74,6.04,34.53,2.32,1-.31,2.07-1.46,2.44-2.46,.64-1.72,.98-3.63,1.04-5.47,.29-7.98,.29-7.73-7.48-6.09-4.88,1.03-9.89,3.02-14.98,.6-1.48-.71-2.97-1.41-4.5-1.99-4.41-1.66-5.7-5.58-6.99-9.51,2.83-.67,5.65-1.78,8.5-1.92,8.66-.4,17.33-.56,26-.51,3.13,.02,4.25-1.12,4.54-4.07,1.09-11.23-2.63-21.13-10.81-28.18-3.9-3.36-10.71-3.38-16.24-4.77-1.25-.32-2.65-.05-3.99-.05"/>
<path class="d" d="M137.19,84.44c-4.11,1.17-6.81,3.88-9.1,7.43-1.36,2.11-1,2.95,1.1,3.01,6.16,.16,12.35,.32,18.49-.05,3.49-.21,2.13-3.41,1.39-4.84-2.33-4.48-6.33-6.27-11.38-5.56"/>
</svg>