<svg xmlns="http://www.w3.org/2000/svg" viewBox="0 0 199.33 197.42">
<defs><style>.d{fill:#000;stroke:#000;stroke-linecap:round;stroke-linejoin:round;stroke-width:1px;}.g{fill:#92a14e;}</style></defs>
<path class="d" d="M107.74,76.27c-.17,3.17-.46,6.33-.48,9.5-.06,9.5-.02,19-.02,28.5,0,3.33-.22,6.69,.11,9.99,.13,1.24,1.3,2.91,2.43,3.42,8.48,3.82,7.73,12.64,4.36,20.55-3.19,7.5-9.53,9.84-17.9,7.54-11.41-3.14-14.92-14.37-7.49-24,.29-.37,.61-.76,1-.99,7.45-4.33,6.77-11.45,6.51-18.51-.41-11.5-.79-23-.95-34.5-.04-2.91-.5-5.33-2.54-7.52-5.08-5.48-7.57-12.14-8.58-19.47-.14-1.05-.72-2.25-1.49-2.97-5.1-4.74-10.24-9.44-15.48-14.02-4.42-3.86-5.49-3.8-9.47,.49-9.38,10.13-18.7,20.3-28.01,30.49-8.36,9.14-16.55,18.44-25.05,27.45-5.08,5.39-4.81,6.19,.11,11.48,9.95,10.7,20.35,20.98,30.41,31.59,6.82,7.19,13.24,14.76,20.06,21.94,10.39,10.94,20.85,21.81,31.56,32.44,2.59,2.58,6.05,4.59,9.46,5.96,4.69,1.89,9.17,.08,12.91-2.92,3.67-2.95,7.13-6.19,10.52-9.47,12.87-12.46,26.01-24.66,38.42-37.57,12.26-12.75,23.76-26.24,35.59-39.41,.87-.97,1.82-1.91,2.48-3.01,2.94-4.93,3-6.63-1.02-10.94-10.37-11.12-20.91-22.08-31.47-33.03-8.1-8.4-16.16-16.85-24.53-24.97-10.16-9.85-20.42-19.61-31.03-28.96-7.02-6.18-12.04-5.71-18.88,.96-4.89,4.77-9.38,9.96-14.04,14.96"/>
<path class="g" d="M107.24,74.77c5.83,5,11.52,10.19,17.58,14.89,1.96,1.52,2.21,2.99,2.49,5.1,.67,4.98,.43,10.12,3.84,14.57,3.68,4.8,8.46,7.54,14.03,6.23,6.44-1.52,12.51-4.79,13.99-12.3,1.04-5.32-2.13-9.56-5.04-13.41-3.35-4.43-7.72-7.51-13.93-5.16-.77,.29-2.21-.31-2.93-.96-6.4-5.76-12.76-11.56-18.97-17.53-.84-.81-.81-2.58-1.06-3.93-.71-3.83-.82-7.86-2.14-11.45-2-5.45-8.05-8.82-14.35-7.89-3.25,.48-5.04-.53-7.06-2.62-5.4-5.6-10.9-11.1-16.51-16.49-1.37-1.31-3.29-2.05-4.96-3.05"/>
</svg>