<?xml version="1.0" encoding="UTF-8"?><svg xmlns="http://www.w3.org/2000/svg" viewBox="0 0 184.52 182.02"><defs><style>.d{fill:none;stroke:#000;stroke-linecap:round;stroke-linejoin:round;stroke-width:2px;}</style></defs><g id="a"/><g id="b"><g id="c"><path class="d" d="M118.23,168.45c.17,1.83,.35,3.67,.5,5.5,.28,3.56,2.53,5.12,6,3.99,14.5-4.72,25.78-14.17,35.97-25.02,12.54-13.35,18.5-30.07,21.8-47.51,2.39-12.65,.31-25.45-3.19-37.98-6.11-21.89-19.36-38.03-37.98-50.62-9.45-6.38-19.08-12-30.12-14.75-4.16-1.04-8.64-1.06-12.97-1.06-13.83-.01-27.47,1.88-40.46,6.55-16.35,5.88-29.74,15.96-39.01,30.92-6.03,9.75-12.87,19.27-14.44,30.99-1.58,11.78-3.42,23.66-3.31,35.49,.11,11.96,5.44,22.79,11.68,33.03,8.31,13.61,19.51,24.48,32.12,33.87,6.26,4.66,13.23,8.48,21.41,9.15,3.88,.32,5.14-1.77,5.49-5.04,.07-.66,0-1.33,.01-2,.08-12.92,.07-12.65-12.5-13.09-8.73-.31-16.33-2.76-20.7-11.81-2.42-5.02-6.85-9.06-10.27-13.62-.74-.99-1.04-2.31-1.54-3.47,1.5-.5,3.48-1.87,4.42-1.35,4.19,2.32,8.39,4.82,12,7.95,4.13,3.57,8.02,7.01,13.56,8.5,9.1,2.45,14.8,.31,17.95-9.62,.51-1.6,.41-3.08-2.39-3.64-5.45-1.1-10.83-2.84-16.01-4.9-10.43-4.16-18.37-11.33-20.86-22.47-2.82-12.64-2.99-25.25,3.06-37.59,2.04-4.16,.91-9.87,1.28-14.87,.29-3.84,.34-7.74,1.18-11.46,.25-1.12,3.11-2.72,4.26-2.38,6.11,1.81,12,4.33,18.07,6.25,2.52,.8,5.32,1.11,7.97,.99,4.01-.18,8-1.25,12.01-1.35,8.66-.22,17.34-.29,25.99,.03,4.29,.16,7.95-1.03,11.5-3.1,2.84-1.65,5.57-3.53,8.52-4.95,5.24-2.52,9.35-1.07,10.28,4.49,.9,5.35,.14,10.97,.24,16.47,.02,1.17,.37,2.5,1,3.47,4.02,6.22,7.59,12.58,9,20.02,2.38,12.62,1.5,24.6-7.62,34.44-6.81,7.35-14.7,13.5-24.93,15.54-3.27,.65-4.38,1.14-2.68,5.11,4.12,9.63,4.83,19.99,4.19,30.42"/></g></g></svg>