<svg xmlns="http://www.w3.org/2000/svg" viewBox="0 0 176.47 176.07"><defs><style>.d{fill:#000;stroke:#000;stroke-linecap:round;stroke-linejoin:round;stroke-width:1px;}.w{fill:#EEEEEE}</style></defs>
<path class="d" d="M175,102.07c.17-14.17,.45-28.33,.46-42.5,.01-11.33-.33-22.67-.45-34-.07-6.5-.11-13,.03-19.5,.06-2.65-.13-4.13-3.55-4.11-6.33,.04-12.66-.79-19-.85-16.67-.14-33.33-.17-50,0-13.67,.14-27.33,.63-41,.96-13.67,.33-27.33,.71-41,.98-5.66,.11-11.35,.24-16.99-.1-2.07-.12-2.59,.35-2.5,2.11,.32,6.33,.66,12.67,.99,19,.04,.83,0,1.67,0,2.5,.33,17.5,.63,35,1.01,52.5,.27,12.5,.95,25,.92,37.5-.05,17.67-.62,35.33-.91,53-.09,5.49,0,5.55,5.48,5.49,11.5-.13,23-.48,34.5-.45,20.5,.04,41,.5,61.5,.41,22.33-.1,44.67-.7,67-.86,3.8-.03,3.55-2.13,3.5-4.58-.33-14.67-.83-29.33-.93-44-.05-7.66,.6-15.33,.93-23"/>
<path class="w" d="M142.5,99.57c2.83-1.83,5.77-3.53,8.42-5.6,.67-.52,.97-2.6,.49-3.35-5.07-7.81-23.31-11.75-31.43-7.08-7.98,4.59-11.81,11.32-10.97,20.52,.78,8.51,5.41,14.3,12.97,18.02,5.88,2.9,11.71,5.91,17.5,9,5.71,3.04,7.08,8.47-1.46,13.03-6.16,3.29-15.97,2.79-21.08-3-2.36-2.67-5.22-1.9-8.97,1.42-2.43,2.16-1.53,4.04,.03,6.03,7.02,9,25.27,13.7,37.11,8.23,14.41-6.65,16.09-26.26,4.27-36.08-4.55-3.78-10.52-5.87-15.88-8.64-3.7-1.91-7.96-3.52-8.84-8.05-.52-2.67-.16-5.96,1.02-8.39,1.4-2.88,4.95-3.23,7.8-2.47,3.4,.9,6.92,2.16,8.53,5.89"/>
<path class="w" d="M47.5,147.07c4.3,9.47,12.24,12.88,22,12.97,11.6,.11,20.16-7.16,22.49-18.98,3.4-17.24,2.2-34.65,1.39-51.99-.26-5.64-.97-5.93-7.36-4.91-6.26,.99-7.19,.8-7.08,6.41,.22,10.83,.28,21.67-.03,32.5-.16,5.68-.95,11.39-1.99,16.99-1.12,6.06-7.24,8.35-12.42,5.01-.7-.45-1.39-.94-2-1.5-5.69-5.35-6.14-5.36-12,.02-1.04,.95-2.01,1.99-3.01,2.99"/>
</svg>