<svg xmlns="http://www.w3.org/2000/svg" viewBox="0 0 195.05 191.24"><defs><style>.d{fill:#000;stroke:#000;stroke-linecap:round;stroke-linejoin:round;stroke-width:1px;}.w{fill:#EEEEEE}</style></defs>
<path class="d" d="M193.61,72.57c-.5-11.83-.67-23.69-1.58-35.49-1.16-14.91-9.76-25.42-22.03-32.83-4.38-2.64-9.78-4.05-15.41-2.77-3.05,.69-6.31,.48-9.48,.58-21.5,.68-43,1.75-64.5,1.85-12,.06-24.05-1.07-35.99-2.45C30.31-.2,9.45,8.3,4.74,24.46,1.5,35.56,.68,46.36,1.1,57.57c.35,9.33,.74,18.66,.99,28,.39,14.83,.63,29.67,1.05,44.5,.12,4.34,.89,8.67,.89,13,0,4.17-.61,8.33-.92,12.5-1,13.28,7.64,28.8,23.99,30.6,6.4,.71,12.64,2.78,19.03,3.81,3.25,.52,6.65,.09,9.99,.09,.67,0,1.33,.02,2,0,11.17-.33,22.33-.86,33.5-.95,19.17-.16,38.34,.28,57.5-.2,8.22-.21,16.58-.51,24.54-3.77,11.37-4.66,19.1-16.54,19.38-28.58,.35-14.99-.04-30,.13-45,.11-10,.72-20,.9-30,.05-2.83-.61-5.67-.94-8.5"/>
<path class="w" d="M62.11,132.57c-.17-7-.08-14.02-.6-20.99-.29-3.89,1.75-4.23,4.6-4.54,5.18-.56,10.39-1.03,15.49-2.03,10.65-2.08,18.3-7.63,22.11-18.41,5.32-15.06-7.17-34.69-23.1-35.54-8.67-.46-17.33-1-26-1.49-.5-.03-1-.01-1.5,0-8.86,.22-9,.36-9,9,0,15.17-.06,30.33,.02,45.5,.05,9,.43,18,.41,27,0,2.8,.76,3.88,3.57,3.52,4.49-.57,9-1.02,13.5-1.52"/>
<path class="w" d="M130.11,88.57c2.61-5.19,7.5-4.83,11.99-4.37,3.4,.35,6.65,1.99,10.02,2.84,3.76,.95,4.93-.08,4.99-3.97,.17-10.58,.19-10.74-10.51-12.45-10.48-1.68-20.19-.45-28.04,7.91-6.39,6.81-6.2,14.56-.36,22.47,3.27,4.42,7.89,7.45,13.37,9.17,3.01,.95,5.84,2.7,8.46,4.5,1.08,.74,2.25,2.93,1.88,3.82-.63,1.47-2.29,2.98-3.84,3.48-4.93,1.57-9.77,.31-14.46-1.41-3.02-1.1-6-2.32-9-3.49-.17,3-.15,6.02-.55,8.99-.51,3.85,.64,6.37,4.54,7.52,11.5,3.39,22.93,5.47,33.48-2.55,5.68-4.32,9.99-9.86,7.87-17.42-1.51-5.38-5.29-9.65-10.33-12.56-5.05-2.92-10.02-5.96-15-8.99-1.54-.94-3.01-1.99-4.51-2.99"/>
<path class="d" d="M63.61,66.07c-.5,.67-1.44,1.34-1.43,2,.06,7.33,.16,14.67,.54,21.99,.06,1.21,1.31,2.96,2.43,3.4,5.1,2.03,16.96-2.54,19.96-7.39,4.14-6.71,1.67-14.13-5.47-17.56-5.01-2.4-10.2-2.62-15.53-2.44"/>
</svg>