<svg xmlns="http://www.w3.org/2000/svg" viewBox="0 0 190.82 187.03"><defs><style>.d{fill:#000;stroke:#000;stroke-linecap:round;stroke-linejoin:round;stroke-width:1px;}.w{fill:#EEEEEE}</style></defs>
<path class="d" d="M140.19,1.93c-13.33-.33-26.67-1.09-40-.9-21.01,.3-42.02,.9-62.99,2.06-8.77,.49-17.9,2.41-24.87,8.01C2.53,18.97,.27,30.33,1.19,42.43c.19,2.5,.4,5,.49,7.5,.36,9.67,1,19.33,.95,29-.14,24.33-.15,48.69-1.14,72.99-.46,11.18,3.85,18.63,12.67,24.55,8.98,6.02,18.44,9.73,29.53,9.55,19.83-.33,39.67,.17,59.5-.17,18.01-.3,36.05-.63,53.98-2.14,12.26-1.04,23.35-6.42,29.25-17.92,2.58-5.02,2.98-11.51,3.13-17.37,.4-15.82,.26-31.66,.11-47.5-.2-19.83-.23-39.68-1.11-59.49-.61-13.68-3.47-27.02-17.43-33.86-4.89-2.4-10.53-3.52-15.95-4.53-4.73-.88-9.65-.78-14.48-1.11"/><path class="w" d="M47.69,129.93c.33,0,.68-.06,1,0,13.26,3.11,14,2.56,14-10.51,0-3.5,.16-7.01-.05-10.5-.19-3.1,.98-4,4.05-4.09,7.5-.2,14.98-.94,21.99-3.94,6.36-2.72,11.6-7.11,14.9-13.04,5.79-10.44-.34-28.62-10.89-33.94-7.08-3.58-14.59-5.25-22.5-4.98-7.5,.25-15,.76-22.5,.92-2.44,.05-2.62,1.22-2.51,3.06,.68,10.83,1.51,21.66,1.94,32.5,.22,5.65-.42,11.33-.4,17,.03,9,.3,18,.46,27"/><path class="w" d="M132.19,74.93c.12-5.72-3.29-5.92-7.99-6.19-8.96-.5-8.82-.96-8.54,8.19,.44,14,.73,28,1,42,.05,2.83-.55,5.68-.39,8.49,.12,2.1,.88,3.92,3.93,3.58,4.3-.48,9.93,1.13,12.59-1.06,2.14-1.77,.83-7.85,.88-12.01,.08-7.5,.02-15,.02-22.5,0-6.33,1.08-7.71,7.5-9.5,3.66-1.02,7.37-1.89,10.97-3.08,1-.33,2.34-1.54,2.41-2.43,.28-3.48,.26-7,.08-10.49-.22-4.27-3.87-3.42-5.91-2.83-3.68,1.06-7.09,3.07-10.53,4.86-2.25,1.17-4.35,2.64-6.52,3.97"/><path class="d" d="M66.19,62.93c-1.94,.37-2.55,1.49-2.56,3.5-.02,6.5-.45,13-.3,19.5,.03,1.36,1.87,3.82,2.86,3.81,4.67-.06,9.47-.29,13.96-1.46,3.79-.98,6.63-3.54,6.62-8.34,0-6-.13-11.42-7.04-14.1-4.27-1.66-8.36-3.38-13.04-2.9"/></svg>