<svg xmlns="http://www.w3.org/2000/svg" viewBox="0 0 173.36 174.72"><defs><style>.d{fill:#000;stroke:#000;stroke-linecap:round;stroke-linejoin:round;stroke-width:1px;}.w{fill:#EEEEEE}</style></defs>
<path class="d" d="M128.13,50.53c0-6.67,.39-13.36-.12-19.99-.43-5.71-1.92-11.34-2.87-17.01-1.01-5.96-5.42-8.28-10.52-9.45C99.93,.71,85.07,.23,70.13,2.04c-5.01,.61-10.02,1.19-14.99,2.03-5.48,.92-9.09,5.3-9.43,11.97-.33,6.48,.13,13.01-.16,19.49-.15,3.43,1.43,3.65,4.09,3.54,6.83-.28,13.66-.47,20.5-.5,4.67-.02,9.35,.15,13.99,.55,1.55,.13,3.01,1.25,4.51,1.92-1.5,1.33-2.95,3.73-4.51,3.81-5.98,.3-11.99-.22-17.99-.29-7.33-.08-14.67-.21-22,.04-5.68,.19-11.33,1.24-17,1.38-13.84,.35-19.58,8.13-22.33,20.1-2.02,8.8-2.58,17.95-3.65,26.96-1.7,14.35,11.82,32.65,26.48,36.01,1.18,.27,2.32,.74,3.5,.98,5.69,1.16,8.22-1.14,8.56-6.98,.4-6.85,.49-13.86,2.12-20.46,2.55-10.32,10.41-15.92,20.34-18.46,4.03-1.03,8.3-1.41,12.48-1.53,12.16-.34,24.34-.64,36.5-.45,5.78,.09,9.65-2.22,11.95-7.13,3.54-7.56,5.09-15.62,5.05-23.98"/><path class="w" d="M108.63,134.53c-6.17,.17-12.33,.43-18.5,.39-.84,0-2.32-1.55-2.32-2.39s1.42-2.3,2.33-2.39c4.14-.41,8.32-.56,12.49-.59,12.33-.06,24.68,.25,37-.13,6.52-.2,13.08-1.22,19.46-2.58,2.09-.45,4.02-2.9,5.48-4.85,4.51-6.02,6.01-13.17,7.08-20.45,1.62-11.07,.16-22.05-1.08-33-1.05-9.22-4.28-17.4-14.46-19.9-4.67-1.15-9.64-1.11-14.47-1.61-2.96-.3-4,1.04-4.06,4-.13,6.34-.26,12.71-1.02,18.99-1.08,8.91-3.83,17.34-13.47,20.34-4.7,1.46-9.94,1.5-14.95,1.6-11.5,.22-23-.06-34.5,.14-4.01,.07-8.22,.33-11.92,1.65-2.41,.86-4.56,3.49-6,5.83-7.09,11.54-6.87,24.57-7.02,37.45-.05,4.5,1.16,9.04,.8,13.49-.46,5.78,1.83,9.78,6.15,13,10.87,8.1,22.87,11.78,36.5,9.56,5.79-.94,11.65-1.56,17.5-2,8.24-.63,13.4-6.07,17.23-12.21,2.13-3.42,2.33-8.54,2.13-12.83-.63-13.33-3.08-10.86-12.36-11.03-2.5-.04-5-.31-7.5-.48"/><path class="w" d="M64.63,14.03c4.51,.38,8.17,3.35,8,6.5-.19,3.56-4.11,7-8,7s-8.5-3.44-8.43-7c.07-3.64,1.76-5.94,7.43-6.5"/><path class="d" d="M111.63,146.03c-4.28,1.79-5.81,5.34-4.82,9.46,.46,1.92,2.67,3.57,4.4,4.95,.71,.57,2.45,.48,3.39,.03,4.25-2.04,4.39-6.02,3.98-9.93-.39-3.74-3.19-4.58-6.45-4.51"/></svg>