<svg xmlns="http://www.w3.org/2000/svg" viewBox="0 0 182.08 142.55"><defs><style>.d{fill:#000;stroke:#000;stroke-linecap:round;stroke-linejoin:round;stroke-width:1px;}.w{fill:#92a14e}</style></defs>
<path class="d" d="M172.93,139.67c-3-5.83-5.87-11.74-9.04-17.48-2.28-4.12-4.81-8.12-7.51-11.99-1.8-2.59-2.02-3.98,.95-6.17,4.23-3.12,7.89-7.08,11.58-10.88,16.33-16.84,16.6-47.77-1.45-64.02-10.59-9.53-21.97-17.44-36.02-21.02-5.09-1.3-9.96-3.45-15.03-4.9-9.38-2.69-18.88-2.76-28.5-1.1-7.61,1.31-15.32,2.09-22.99,3.06-13.81,1.74-26.2,7.18-37.43,15.1-5.57,3.93-10.81,8.52-15.49,13.48C.8,45.62-1.12,59.82,2.97,75.16c.33,1.26,1.18,2.42,1.97,3.5,4.3,5.86,8.53,11.77,13.01,17.49,7.67,9.8,18.61,14.36,29.99,17.97,8.09,2.57,16.27,4.92,24.52,6.91,2.23,.54,2.53,1.29,2.49,3.14-.08,3.83,0,7.67-.03,11.5-.03,3.06,.95,4.68,4.51,4.58,7.99-.24,16-.19,24-.01,2.81,.06,3.82-.75,3.54-3.57-.33-3.32-.5-6.66-.5-10,0-2.9-.27-6.24,4.47-5.56,.77,.11,1.63-.74,2.5-.91,4.49-.88,10.26-3.79,13.19-2.02,4.19,2.53,7.09,8.17,9.12,13.07,3.26,7.86,8.04,11.3,16.7,10.05,6.58-.95,13.32-.79,19.98-1.12"/><path class="w" d="M141.93,95.17c6.25,5.24,7.29,5.36,13.47,.47,3.14-2.49,5.89-5.48,9.05-7.93,8.08-6.28,6.62-15.13,6.35-23.53-.1-3.19-1.64-6.32-2.36-9.51-2.96-13.01-13.56-18.19-24.02-23.49-7.06-3.58-14.82-4.12-22.49-5.02-5.17-.61-10.32-1.67-15.51-1.91-7.62-.35-15.07,1.03-22.52,2.83-15.04,3.63-28.29,10.24-38.97,21.6-4.35,4.62-6.72,10.02-7.06,16.49-.85,16.11,3.76,23.52,19.05,30.02,4.87,2.07,9.6,4.5,14.53,6.44,5.09,2,5.54,1.66,5.46-3.45-.27-17-.56-34-1.02-51-.19-7.03,.58-8.04,7.54-8.01,6.5,.03,13,.13,19.5-.02,9.84-.23,19.69-1.18,29.49-.77,6.05,.25,12.14,2.06,17.98,3.9,8.78,2.76,11.51,10.7,13.41,18.43,3.53,14.38-.18,21.82-12.89,29.46-2.62,1.58-5.33,3.01-7.99,4.51"/><path class="w" d="M119.43,105.67c-2-3.78-7.03-6.07-10.45-4.4-1,.49-1.71,2.18-1.9,3.42-.08,.53,1.5,1.86,2.35,1.88,3.33,.07,6.66-.24,10-.4"/><path class="w" d="M108.43,61.17c-3.42,1.32-1.9,4.27-1.94,6.5-.15,10.5-.06,10.57,10.43,10.45,3.17-.04,6.39-.34,9.49-1.01,6.45-1.4,7.47-3.22,6.51-10.44-.4-3.02-3.99-5.41-8.5-5.48-5.17-.08-10.33-.02-15.5-.02"/></svg>